<svg width="19" height="18" viewBox="0 0 19 18" fill="none" xmlns="http://www.w3.org/2000/svg">
<path d="M10.5 5V1C10.5 0.716667 10.596 0.479333 10.788 0.288C10.98 0.0966668 11.2173 0.000666667 11.5 0H17.5C17.7833 0 18.021 0.0960001 18.213 0.288C18.405 0.48 18.5007 0.717333 18.5 1V5C18.5 5.28333 18.404 5.521 18.212 5.713C18.02 5.905 17.7827 6.00067 17.5 6H11.5C11.2167 6 10.9793 5.904 10.788 5.712C10.5967 5.52 10.5007 5.28267 10.5 5ZM0.5 9V1C0.5 0.716667 0.596 0.479333 0.788 0.288C0.98 0.0966668 1.21733 0.000666667 1.5 0H7.5C7.78333 0 8.021 0.0960001 8.213 0.288C8.405 0.48 8.50067 0.717333 8.5 1V9C8.5 9.28333 8.404 9.521 8.212 9.713C8.02 9.905 7.78267 10.0007 7.5 10H1.5C1.21667 10 0.979333 9.904 0.788 9.712C0.596667 9.52 0.500667 9.28267 0.5 9ZM10.5 17V9C10.5 8.71667 10.596 8.47933 10.788 8.288C10.98 8.09667 11.2173 8.00067 11.5 8H17.5C17.7833 8 18.021 8.096 18.213 8.288C18.405 8.48 18.5007 8.71733 18.5 9V17C18.5 17.2833 18.404 17.521 18.212 17.713C18.02 17.905 17.7827 18.0007 17.5 18H11.5C11.2167 18 10.9793 17.904 10.788 17.712C10.5967 17.52 10.5007 17.2827 10.5 17ZM0.5 17V13C0.5 12.7167 0.596 12.4793 0.788 12.288C0.98 12.0967 1.21733 12.0007 1.5 12H7.5C7.78333 12 8.021 12.096 8.213 12.288C8.405 12.48 8.50067 12.7173 8.5 13V17C8.5 17.2833 8.404 17.521 8.212 17.713C8.02 17.905 7.78267 18.0007 7.5 18H1.5C1.21667 18 0.979333 17.904 0.788 17.712C0.596667 17.52 0.500667 17.2827 0.5 17ZM2.5 8H6.5V2H2.5V8ZM12.5 16H16.5V10H12.5V16ZM12.5 4H16.5V2H12.5V4ZM2.5 16H6.5V14H2.5V16Z" fill="#1D5BBF"/>
</svg>
