<svg width="9" height="6" viewBox="0 0 9 6" fill="none" xmlns="http://www.w3.org/2000/svg">
<path d="M4.52054 5.16595C4.43559 5.16644 4.35139 5.15016 4.27276 5.11804C4.19412 5.08592 4.1226 5.0386 4.06229 4.97878L0.189811 1.1063C0.068277 0.984764 0 0.819929 0 0.648054C0 0.47618 0.068277 0.311345 0.189811 0.189811C0.311345 0.068277 0.47618 0 0.648054 0C0.819929 0 0.984764 0.068277 1.1063 0.189811L4.52054 3.6105L7.93477 0.196265C8.05824 0.0905293 8.21706 0.0352777 8.3795 0.0415518C8.54193 0.047826 8.69602 0.115164 8.81096 0.230108C8.92591 0.345053 8.99324 0.499138 8.99952 0.661574C9.00579 0.824009 8.95054 0.982829 8.84481 1.1063L4.97232 4.97878C4.85211 5.09802 4.68985 5.16524 4.52054 5.16595Z" fill="#1D5BBF"/>
</svg>
