<svg width="24" height="24" viewBox="0 0 24 24" fill="none" xmlns="http://www.w3.org/2000/svg">
<rect width="24" height="24" rx="3" fill="#EEF5FF"/>
<path d="M14.3443 17.4062C14.0653 18.7736 12.8533 19.8062 11.4049 19.8062C9.95653 19.8062 8.74393 18.7736 8.46553 17.4062H14.3443ZM16.7587 10.799C16.7089 10.8008 16.6603 10.8062 16.6099 10.8062C14.7301 10.8062 13.2013 9.32605 13.2013 7.50625C13.2013 6.96385 13.3399 6.45265 13.5805 6.00085C12.8479 5.61985 12.0151 5.40625 11.1409 5.40625C8.72353 5.40625 6.63073 7.03165 6.10633 9.31585L4.91953 13.0304C4.41553 14.6072 5.63353 16.2062 7.33873 16.2062H15.1705C16.9261 16.2062 18.1489 14.519 17.5513 12.9212L16.7587 10.799Z" fill="#00AEBD"/>
<circle cx="16.2047" cy="7.20469" r="2.4" fill="#FD003A"/>
</svg>
