<svg width="17" height="19" viewBox="0 0 17 19" fill="none" xmlns="http://www.w3.org/2000/svg">
<path d="M11.385 16C10.8003 16 10.3017 15.7933 9.889 15.38C9.47633 14.9667 9.26967 14.4683 9.269 13.885C9.26833 13.3017 9.475 12.8027 9.889 12.388C10.303 11.9733 10.8017 11.767 11.385 11.769C11.9683 11.771 12.467 11.9777 12.881 12.389C13.295 12.8003 13.5013 13.299 13.5 13.885C13.4987 14.471 13.292 14.9697 12.88 15.381C12.468 15.7923 11.9697 15.9987 11.385 16ZM2.115 19C1.655 19 1.271 18.846 0.963 18.538C0.655 18.23 0.500667 17.8457 0.5 17.385V4.61499C0.5 4.15499 0.654333 3.77099 0.963 3.46299C1.27167 3.15499 1.656 3.00066 2.116 2.99999H3.885V0.769989H4.962V2.99999H12.116V0.769989H13.116V2.99999H14.885C15.345 2.99999 15.7293 3.15432 16.038 3.46299C16.3467 3.77166 16.5007 4.15599 16.5 4.61599V17.385C16.5 17.845 16.346 18.2293 16.038 18.538C15.73 18.8467 15.3453 19.0007 14.884 19H2.115ZM2.115 18H14.885C15.0383 18 15.1793 17.936 15.308 17.808C15.4367 17.68 15.5007 17.5387 15.5 17.384V8.61599H1.5V17.385C1.5 17.5383 1.564 17.6793 1.692 17.808C1.82 17.9367 1.961 18.0007 2.115 18Z" fill="#18283D"/>
</svg>
