<svg width="25" height="24" viewBox="0 0 25 24" fill="none" xmlns="http://www.w3.org/2000/svg">
<path d="M16.25 13C16.25 12.8011 16.171 12.6103 16.0303 12.4697C15.8897 12.329 15.6989 12.25 15.5 12.25H9.5C9.30109 12.25 9.11032 12.329 8.96967 12.4697C8.82902 12.6103 8.75 12.8011 8.75 13C8.75 13.1989 8.82902 13.3897 8.96967 13.5303C9.11032 13.671 9.30109 13.75 9.5 13.75H15.5C15.6989 13.75 15.8897 13.671 16.0303 13.5303C16.171 13.3897 16.25 13.1989 16.25 13ZM16.25 17C16.25 16.8011 16.171 16.6103 16.0303 16.4697C15.8897 16.329 15.6989 16.25 15.5 16.25H9.5C9.30109 16.25 9.11032 16.329 8.96967 16.4697C8.82902 16.6103 8.75 16.8011 8.75 17C8.75 17.1989 8.82902 17.3897 8.96967 17.5303C9.11032 17.671 9.30109 17.75 9.5 17.75H15.5C15.6989 17.75 15.8897 17.671 16.0303 17.5303C16.171 17.3897 16.25 17.1989 16.25 17Z" fill="#18283D"/>
<path fill-rule="evenodd" clip-rule="evenodd" d="M7.5 2.25C6.77065 2.25 6.07118 2.53973 5.55546 3.05546C5.03973 3.57118 4.75 4.27065 4.75 5V19C4.75 19.7293 5.03973 20.4288 5.55546 20.9445C6.07118 21.4603 6.77065 21.75 7.5 21.75H17.5C18.2293 21.75 18.9288 21.4603 19.4445 20.9445C19.9603 20.4288 20.25 19.7293 20.25 19V7.968C20.25 7.587 20.126 7.217 19.896 6.913L16.898 2.945C16.7349 2.72912 16.5239 2.554 16.2817 2.43341C16.0395 2.31282 15.7726 2.25004 15.502 2.25H7.5ZM6.25 5C6.25 4.31 6.81 3.75 7.5 3.75H14.75V8.147C14.75 8.561 15.086 8.897 15.5 8.897H18.75V19C18.75 19.69 18.19 20.25 17.5 20.25H7.5C6.81 20.25 6.25 19.69 6.25 19V5Z" fill="#18283D"/>
</svg>
