<svg width="24" height="24" viewBox="0 0 24 24" fill="none" xmlns="http://www.w3.org/2000/svg">
<rect width="24" height="24" rx="3" fill="#EEF5FF"/>
<path d="M8.77426 8.03947C8.56194 7.83059 8.21729 7.83059 8.00468 8.03947C7.21583 8.81448 6.82831 9.89391 6.94109 11.0013C6.96928 11.2772 7.20576 11.4829 7.48195 11.4829C7.50007 11.4829 7.51848 11.4821 7.53661 11.4801C7.83581 11.4507 8.05388 11.1884 8.02396 10.8948C7.94369 10.1076 8.21729 9.34247 8.77426 8.79526C8.98686 8.58667 8.98686 8.24806 8.77426 8.03919V8.03947Z" fill="#1D5BBF"/>
<path d="M19.0461 18.2865L15.1434 14.3839C14.9336 14.1741 14.5937 14.1741 14.3839 14.3839C14.1741 14.5934 14.1741 14.9336 14.3839 15.1434L18.2867 19.0459C18.3917 19.151 18.5288 19.2032 18.6663 19.2032C18.8037 19.2032 18.9411 19.1507 19.0459 19.0459C19.2557 18.8364 19.2557 18.4963 19.0459 18.2865H19.0461Z" fill="#00AEBD"/>
<path d="M10.8931 4.80469C7.53588 4.80469 4.80469 7.53588 4.80469 10.8931C4.80469 14.2504 7.53588 16.9816 10.8931 16.9816C14.2504 16.9816 16.9816 14.2504 16.9816 10.8931C16.9816 7.53588 14.2501 4.80469 10.8931 4.80469ZM10.8931 15.9164C8.12311 15.9164 5.86991 13.6629 5.86991 10.8931C5.86991 8.12339 8.12311 5.86963 10.8931 5.86963C13.6632 5.86963 15.9164 8.12311 15.9164 10.8929C15.9164 13.6626 13.6629 15.9161 10.8931 15.9161V15.9164Z" fill="#00AEBD"/>
</svg>
