<svg width="19" height="20" viewBox="0 0 19 20" fill="none" xmlns="http://www.w3.org/2000/svg">
<path d="M9.5 2C8.57174 2 7.6815 2.36875 7.02513 3.02513C6.36875 3.6815 6 4.57174 6 5.5C6 6.42826 6.36875 7.3185 7.02513 7.97487C7.6815 8.63125 8.57174 9 9.5 9C10.4283 9 11.3185 8.63125 11.9749 7.97487C12.6313 7.3185 13 6.42826 13 5.5C13 4.57174 12.6313 3.6815 11.9749 3.02513C11.3185 2.36875 10.4283 2 9.5 2ZM4 5.5C4 4.04131 4.57946 2.64236 5.61091 1.61091C6.64236 0.579463 8.04131 0 9.5 0C10.9587 0 12.3576 0.579463 13.3891 1.61091C14.4205 2.64236 15 4.04131 15 5.5C15 6.95869 14.4205 8.35764 13.3891 9.38909C12.3576 10.4205 10.9587 11 9.5 11C8.04131 11 6.64236 10.4205 5.61091 9.38909C4.57946 8.35764 4 6.95869 4 5.5ZM0.5 17C0.5 15.6739 1.02678 14.4021 1.96447 13.4645C2.90215 12.5268 4.17392 12 5.5 12H13.5C14.8261 12 16.0979 12.5268 17.0355 13.4645C17.9732 14.4021 18.5 15.6739 18.5 17V20H0.5V17ZM5.5 14C4.70435 14 3.94129 14.3161 3.37868 14.8787C2.81607 15.4413 2.5 16.2044 2.5 17V18H16.5V17C16.5 16.2044 16.1839 15.4413 15.6213 14.8787C15.0587 14.3161 14.2956 14 13.5 14H5.5Z" fill="#18283D"/>
</svg>
